<svg width="157" height="32" viewBox="0 0 157 32" fill="none" xmlns="http://www.w3.org/2000/svg">
<path fill-rule="evenodd" clip-rule="evenodd" d="M4 0C1.79086 0 0 1.79086 0 4V28C0 30.2091 1.79086 32 4 32H26.1176C28.3268 32 30.1176 30.2091 30.1176 28V4C30.1176 1.79086 28.3268 0 26.1177 0H4ZM6.27448 26.9804V5.01962L20.3315 18.4754L20.3195 5.01962L23.8431 8.37473V26.9804L9.93863 13.4465V23.3005L16.8672 23.3684L20.6153 26.9804H6.27448Z" fill="white"/>
<path d="M57.1648 11.8693H52.9034C52.8466 11.4318 52.7301 11.0369 52.554 10.6847C52.3778 10.3324 52.1449 10.0312 51.8551 9.78125C51.5653 9.53125 51.2216 9.34091 50.8239 9.21023C50.4318 9.07386 49.9972 9.00568 49.5199 9.00568C48.6733 9.00568 47.9432 9.21307 47.3295 9.62784C46.7216 10.0426 46.2528 10.642 45.9233 11.4261C45.5994 12.2102 45.4375 13.1591 45.4375 14.2727C45.4375 15.4318 45.6023 16.4034 45.9318 17.1875C46.267 17.9659 46.7358 18.554 47.3381 18.9517C47.946 19.3437 48.6648 19.5398 49.4943 19.5398C49.9602 19.5398 50.3835 19.4801 50.7642 19.3608C51.1506 19.2415 51.4886 19.0682 51.7784 18.8409C52.0739 18.608 52.3153 18.3267 52.5028 17.9972C52.696 17.6619 52.8295 17.2841 52.9034 16.8636L57.1648 16.8892C57.0909 17.6619 56.8665 18.4233 56.4915 19.1733C56.1222 19.9233 55.6136 20.608 54.9659 21.2273C54.3182 21.8409 53.5284 22.3295 52.5966 22.6932C51.6705 23.0568 50.608 23.2386 49.4091 23.2386C47.8295 23.2386 46.4148 22.892 45.1648 22.1989C43.9205 21.5 42.9375 20.483 42.2159 19.1477C41.4943 17.8125 41.1335 16.1875 41.1335 14.2727C41.1335 12.3523 41.5 10.7244 42.233 9.3892C42.9659 8.05398 43.9574 7.03977 45.2074 6.34659C46.4574 5.65341 47.858 5.30682 49.4091 5.30682C50.4659 5.30682 51.4432 5.45455 52.3409 5.75C53.2386 6.03977 54.0284 6.46591 54.7102 7.02841C55.392 7.58523 55.946 8.26989 56.3722 9.08239C56.7983 9.89489 57.0625 10.8239 57.1648 11.8693ZM59.5788 23V9.90909H63.6271V12.2955H63.7635C64.0021 11.4318 64.3913 10.7898 64.9311 10.3693C65.4709 9.94318 66.0987 9.73011 66.8146 9.73011C67.0078 9.73011 67.2067 9.74432 67.4112 9.77273C67.6158 9.79545 67.8061 9.83239 67.9822 9.88352V13.5057C67.7834 13.4375 67.522 13.3835 67.1982 13.3438C66.88 13.304 66.5959 13.2841 66.3459 13.2841C65.8516 13.2841 65.4055 13.3949 65.0078 13.6165C64.6158 13.8324 64.3061 14.1364 64.0788 14.5284C63.8572 14.9148 63.7464 15.3693 63.7464 15.892V23H59.5788ZM72.6271 27.9091C72.1271 27.9091 71.6555 27.8693 71.2124 27.7898C70.7692 27.7159 70.3885 27.6165 70.0703 27.4915L70.9908 24.4659C71.3999 24.6023 71.7692 24.6818 72.0987 24.7045C72.4339 24.7273 72.7209 24.6733 72.9595 24.5426C73.2038 24.4176 73.3913 24.1932 73.522 23.8693L73.6839 23.4773L69.0305 9.90909H73.3942L75.8061 19.25H75.9425L78.3885 9.90909H82.7777L77.843 24.2528C77.6044 24.9688 77.2663 25.5994 76.8288 26.1449C76.397 26.696 75.8374 27.1278 75.1499 27.4403C74.468 27.7528 73.6271 27.9091 72.6271 27.9091ZM84.3757 27.9091V9.90909H88.5007V12.1506H88.6286C88.799 11.7528 89.0405 11.3693 89.353 11C89.6712 10.6307 90.0746 10.3295 90.5632 10.0966C91.0575 9.85795 91.6484 9.73864 92.3359 9.73864C93.245 9.73864 94.0945 9.97727 94.8842 10.4545C95.6797 10.9318 96.3217 11.6676 96.8104 12.6619C97.299 13.6562 97.5433 14.9233 97.5433 16.4631C97.5433 17.946 97.3075 19.1875 96.8359 20.1875C96.37 21.1875 95.7393 21.9375 94.9439 22.4375C94.1541 22.9375 93.2763 23.1875 92.3104 23.1875C91.6513 23.1875 91.0803 23.0795 90.5973 22.8636C90.1143 22.6477 89.7081 22.3636 89.3786 22.0114C89.0547 21.6591 88.8047 21.2812 88.6286 20.8778H88.5433V27.9091H84.3757ZM88.4581 16.4545C88.4581 17.1591 88.5518 17.7727 88.7393 18.2955C88.9325 18.8182 89.2081 19.2244 89.5661 19.5142C89.9297 19.7983 90.3643 19.9403 90.87 19.9403C91.3814 19.9403 91.8161 19.7983 92.174 19.5142C92.532 19.2244 92.8018 18.8182 92.9837 18.2955C93.1712 17.7727 93.2649 17.1591 93.2649 16.4545C93.2649 15.75 93.1712 15.1392 92.9837 14.6222C92.8018 14.1051 92.532 13.7045 92.174 13.4205C91.8217 13.1364 91.3871 12.9943 90.87 12.9943C90.3587 12.9943 89.924 13.1335 89.5661 13.4119C89.2081 13.6903 88.9325 14.0881 88.7393 14.6051C88.5518 15.1222 88.4581 15.7386 88.4581 16.4545ZM107.116 9.90909V12.9773H98.858V9.90909H107.116ZM100.588 6.77273H104.756V18.8835C104.756 19.1392 104.795 19.3466 104.875 19.5057C104.96 19.6591 105.082 19.7699 105.241 19.8381C105.401 19.9006 105.591 19.9318 105.812 19.9318C105.972 19.9318 106.139 19.9176 106.315 19.8892C106.497 19.8551 106.634 19.8267 106.724 19.804L107.355 22.8125C107.156 22.8693 106.875 22.9403 106.511 23.0256C106.153 23.1108 105.724 23.1648 105.224 23.1875C104.247 23.233 103.409 23.1193 102.71 22.8466C102.017 22.5682 101.486 22.1364 101.116 21.5511C100.753 20.9659 100.577 20.2301 100.588 19.3438V6.77273ZM115.213 23.2472C113.838 23.2472 112.656 22.9659 111.668 22.4034C110.685 21.8352 109.926 21.0455 109.392 20.0341C108.864 19.017 108.599 17.8381 108.599 16.4972C108.599 15.1506 108.864 13.9716 109.392 12.9602C109.926 11.9432 110.685 11.1534 111.668 10.5909C112.656 10.0227 113.838 9.73864 115.213 9.73864C116.588 9.73864 117.767 10.0227 118.75 10.5909C119.739 11.1534 120.497 11.9432 121.026 12.9602C121.56 13.9716 121.827 15.1506 121.827 16.4972C121.827 17.8381 121.56 19.017 121.026 20.0341C120.497 21.0455 119.739 21.8352 118.75 22.4034C117.767 22.9659 116.588 23.2472 115.213 23.2472ZM115.239 20.1023C115.739 20.1023 116.162 19.9489 116.509 19.642C116.855 19.3352 117.119 18.9091 117.301 18.3636C117.489 17.8182 117.582 17.1875 117.582 16.4716C117.582 15.7443 117.489 15.108 117.301 14.5625C117.119 14.017 116.855 13.5909 116.509 13.2841C116.162 12.9773 115.739 12.8239 115.239 12.8239C114.722 12.8239 114.284 12.9773 113.926 13.2841C113.574 13.5909 113.304 14.017 113.116 14.5625C112.935 15.108 112.844 15.7443 112.844 16.4716C112.844 17.1875 112.935 17.8182 113.116 18.3636C113.304 18.9091 113.574 19.3352 113.926 19.642C114.284 19.9489 114.722 20.1023 115.239 20.1023ZM127.652 23.2216C126.817 23.2216 126.075 23.0824 125.428 22.804C124.786 22.5199 124.277 22.0937 123.902 21.5256C123.533 20.9517 123.348 20.233 123.348 19.3693C123.348 18.642 123.476 18.0284 123.732 17.5284C123.987 17.0284 124.339 16.6222 124.788 16.3097C125.237 15.9972 125.754 15.7614 126.339 15.6023C126.925 15.4375 127.55 15.3267 128.214 15.2699C128.959 15.2017 129.558 15.1307 130.013 15.0568C130.467 14.9773 130.797 14.8665 131.001 14.7244C131.212 14.5767 131.317 14.3693 131.317 14.1023V14.0597C131.317 13.6222 131.166 13.2841 130.865 13.0455C130.564 12.8068 130.158 12.6875 129.646 12.6875C129.095 12.6875 128.652 12.8068 128.317 13.0455C127.982 13.2841 127.768 13.6136 127.678 14.0341L123.834 13.8977C123.947 13.1023 124.24 12.392 124.712 11.767C125.189 11.1364 125.842 10.642 126.672 10.2841C127.507 9.92045 128.51 9.73864 129.68 9.73864C130.516 9.73864 131.286 9.83807 131.99 10.0369C132.695 10.2301 133.308 10.5142 133.831 10.8892C134.354 11.2585 134.757 11.7131 135.041 12.2528C135.331 12.7926 135.476 13.4091 135.476 14.1023V23H131.555V21.1761H131.453C131.22 21.6193 130.922 21.9943 130.558 22.3011C130.2 22.608 129.777 22.8381 129.288 22.9915C128.805 23.1449 128.26 23.2216 127.652 23.2216ZM128.939 20.4943C129.388 20.4943 129.791 20.4034 130.149 20.2216C130.513 20.0398 130.803 19.7898 131.018 19.4716C131.234 19.1477 131.342 18.7727 131.342 18.3466V17.1023C131.223 17.1648 131.078 17.2216 130.908 17.2727C130.743 17.3239 130.561 17.3722 130.362 17.4176C130.163 17.4631 129.959 17.5028 129.749 17.5369C129.538 17.571 129.337 17.6023 129.143 17.6307C128.751 17.6932 128.416 17.7898 128.138 17.9205C127.865 18.0511 127.655 18.2216 127.507 18.4318C127.365 18.6364 127.294 18.8807 127.294 19.1648C127.294 19.5966 127.447 19.9261 127.754 20.1534C128.067 20.3807 128.462 20.4943 128.939 20.4943ZM138.024 23V9.90909H142.072V12.2955H142.209C142.447 11.4318 142.837 10.7898 143.376 10.3693C143.916 9.94318 144.544 9.73011 145.26 9.73011C145.453 9.73011 145.652 9.74432 145.857 9.77273C146.061 9.79545 146.251 9.83239 146.428 9.88352V13.5057C146.229 13.4375 145.967 13.3835 145.643 13.3438C145.325 13.304 145.041 13.2841 144.791 13.2841C144.297 13.2841 143.851 13.3949 143.453 13.6165C143.061 13.8324 142.751 14.1364 142.524 14.5284C142.303 14.9148 142.192 15.3693 142.192 15.892V23H138.024ZM156.124 9.90909V12.9773H147.866V9.90909H156.124ZM149.596 6.77273H153.763V18.8835C153.763 19.1392 153.803 19.3466 153.883 19.5057C153.968 19.6591 154.09 19.7699 154.249 19.8381C154.408 19.9006 154.599 19.9318 154.82 19.9318C154.979 19.9318 155.147 19.9176 155.323 19.8892C155.505 19.8551 155.641 19.8267 155.732 19.804L156.363 22.8125C156.164 22.8693 155.883 22.9403 155.519 23.0256C155.161 23.1108 154.732 23.1648 154.232 23.1875C153.255 23.233 152.417 23.1193 151.718 22.8466C151.025 22.5682 150.494 22.1364 150.124 21.5511C149.761 20.9659 149.585 20.2301 149.596 19.3438V6.77273Z" fill="white"/>
</svg>
